# xmcd CD database file
#
# Track frame offsets:
#	150
#	51802
#	75055
#	108245
#	132610
#	162575
#	191250
#	224227
#
# Disc length: 3365 seconds
#
# Revision: 0
# Processed by: cddbd v1.5PL3 Copyright (c) Steve Scherf et al.
# Submitted via: CDex 1.51
#
DISCID=6c0d2308
DTITLE=Dave Brubeck - Dave Brubeck Plays Standards
DYEAR=1969
DGENRE=Jazz
TTITLE0=St.-Louis Blues (Live)
TTITLE1=I Feel Pretty
TTITLE2=Things Ain't What They Used To Be
TTITLE3=Sometimes I'm happy (Live)
TTITLE4=Georgia On My Mind
TTITLE5=Someday My Prince Will Come
TTITLE6=Live Someone In Love (Live)
TTITLE7=What Is This Thing Called Love?
EXTD=YEAR: 1969
EXTT0=
EXTT1=
EXTT2=
EXTT3=
EXTT4=
EXTT5=
EXTT6=
EXTT7=
PLAYORDER=
